<svg width="28" height="28" viewBox="0 0 28 28" fill="none" xmlns="http://www.w3.org/2000/svg">
<path d="M23.8637 9.13243C23.7489 9.2043 21.0161 10.721 21.0161 14.0838C21.1449 17.9188 24.4647 19.2638 24.5217 19.2638C24.4647 19.3356 24.0205 21.0959 22.7045 22.9411C21.6601 24.5306 20.5009 26.1331 18.7406 26.1331C17.0662 26.1331 16.4651 25.0738 14.5331 25.0738C12.4583 25.0738 11.8713 26.1331 10.2827 26.1331C8.52245 26.1331 7.27739 24.4447 6.17605 22.8702C4.74525 20.8094 3.52912 17.5754 3.48619 14.4702C3.45725 12.8247 3.77272 11.2072 4.57352 9.83336C5.70379 7.91536 7.72165 6.61336 9.92525 6.57043C11.6137 6.5135 13.1163 7.72963 14.1467 7.72963C15.1342 7.72963 16.9803 6.57043 19.0691 6.57043C19.9707 6.57136 22.375 6.84296 23.8637 9.13243ZM14.0039 6.2419C13.7034 4.73923 14.5331 3.23656 15.3059 2.27803C16.2934 1.11883 17.853 0.332031 19.1979 0.332031C19.2838 1.8347 18.7397 3.30843 17.7671 4.38176C16.8945 5.54096 15.3918 6.41363 14.0039 6.2419Z" fill="#141414"/>
</svg>
