<svg width="24" height="24" viewBox="0 0 24 24" fill="none" xmlns="http://www.w3.org/2000/svg">
<path d="M11.175 4.825L4.225 11.775C4.14167 11.8583 4.08333 11.9417 4.05 12.025C4.01667 12.1083 4 12.2 4 12.3C4 12.4 4.01667 12.4917 4.05 12.575C4.08333 12.6583 4.14167 12.7417 4.225 12.825L11.2 19.8C11.3333 19.9333 11.5 20 11.7 20C11.9 20 12.075 19.925 12.225 19.775C12.375 19.625 12.45 19.45 12.45 19.25C12.45 19.05 12.375 18.875 12.225 18.725L6.55 13.05L18.95 13.05C19.1667 13.05 19.3458 12.9792 19.4875 12.8375C19.6292 12.6958 19.7 12.5167 19.7 12.3C19.7 12.0833 19.6292 11.9042 19.4875 11.7625C19.3458 11.6208 19.1667 11.55 18.95 11.55L6.55 11.55L12.25 5.85C12.3833 5.71667 12.45 5.55 12.45 5.35C12.45 5.15 12.375 4.975 12.225 4.825C12.075 4.675 11.9 4.6 11.7 4.6C11.5 4.6 11.325 4.675 11.175 4.825Z" fill="#141414"/>
</svg>
