<svg width="24" height="24" viewBox="0 0 24 24" fill="none" xmlns="http://www.w3.org/2000/svg">
<path d="M11.2438 12.1541L5.99375 17.4041C5.84375 17.5541 5.66875 17.6291 5.46875 17.6291C5.26875 17.6291 5.09375 17.5541 4.94375 17.4041C4.79375 17.2541 4.71875 17.0791 4.71875 16.8791C4.71875 16.6791 4.79375 16.5041 4.94375 16.3541L10.1937 11.1041L4.94375 5.8541C4.79375 5.7041 4.71875 5.5291 4.71875 5.3291C4.71875 5.1291 4.79375 4.9541 4.94375 4.8041C5.09375 4.6541 5.26875 4.5791 5.46875 4.5791C5.66875 4.5791 5.84375 4.6541 5.99375 4.8041L11.2438 10.0541L16.4937 4.8041C16.6437 4.6541 16.8187 4.5791 17.0187 4.5791C17.2187 4.5791 17.3937 4.6541 17.5437 4.8041C17.6937 4.9541 17.7687 5.1291 17.7687 5.3291C17.7687 5.5291 17.6937 5.7041 17.5437 5.8541L12.2938 11.1041L17.5437 16.3541C17.6937 16.5041 17.7687 16.6791 17.7687 16.8791C17.7687 17.0791 17.6937 17.2541 17.5437 17.4041C17.3937 17.5541 17.2187 17.6291 17.0187 17.6291C16.8187 17.6291 16.6437 17.5541 16.4937 17.4041L11.2438 12.1541Z" fill="#141414"/>
</svg>
