<svg width="28" height="28" viewBox="0 0 28 28" fill="none" xmlns="http://www.w3.org/2000/svg">
<path d="M14 2C7.3724 2 2 7.3724 2 14C2 20.6276 7.3724 26 14 26C20.6276 26 26 20.6276 26 14C26 7.3724 20.6276 2 14 2Z" fill="url(#paint0_linear_21081_2304)"/>
<path d="M14.5779 16.0936H17.5973L18.0715 13.0264H14.5779V11.3499C14.5779 10.0759 14.9944 8.946 16.1862 8.946H18.1013V6.26967C17.7647 6.22417 17.053 6.125 15.7084 6.125C12.9003 6.125 11.2541 7.60783 11.2541 10.9865V13.027H8.36719V16.0942H11.2535V24.5245C11.8252 24.6097 12.4044 24.668 12.9989 24.668C13.5361 24.668 14.0605 24.619 14.5779 24.549V16.0936Z" fill="white"/>
<defs>
<linearGradient id="paint0_linear_21081_2304" x1="5.5958" y1="5.5958" x2="23.969" y2="23.969" gradientUnits="userSpaceOnUse">
<stop stop-color="#2AA4F4"/>
<stop offset="1" stop-color="#007AD9"/>
</linearGradient>
</defs>
</svg>
