<svg width="28" height="28" viewBox="0 0 28 28" fill="none" xmlns="http://www.w3.org/2000/svg">
<path d="M25.4424 11.7138H24.5026V11.6654H14.0026V16.332H20.596C19.6341 19.0486 17.0494 20.9987 14.0026 20.9987C10.1369 20.9987 7.0026 17.8644 7.0026 13.9987C7.0026 10.1329 10.1369 6.9987 14.0026 6.9987C15.787 6.9987 17.4104 7.67186 18.6465 8.77145L21.9464 5.47153C19.8628 3.52961 17.0756 2.33203 14.0026 2.33203C7.55969 2.33203 2.33594 7.55578 2.33594 13.9987C2.33594 20.4416 7.55969 25.6654 14.0026 25.6654C20.4455 25.6654 25.6693 20.4416 25.6693 13.9987C25.6693 13.2164 25.5888 12.4529 25.4424 11.7138Z" fill="#FFC107"/>
<path d="M3.67969 8.56845L7.51277 11.3795C8.54994 8.8117 11.0618 6.9987 14.0012 6.9987C15.7856 6.9987 17.409 7.67186 18.6451 8.77145L21.945 5.47153C19.8614 3.52961 17.0742 2.33203 14.0012 2.33203C9.52002 2.33203 5.63385 4.86195 3.67969 8.56845Z" fill="#FF3D00"/>
<path d="M14.0034 25.6651C17.0169 25.6651 19.7551 24.5119 21.8254 22.6364L18.2145 19.5809C17.0432 20.4682 15.5872 20.9984 14.0034 20.9984C10.9689 20.9984 8.39235 19.0635 7.42169 16.3633L3.61719 19.2945C5.54802 23.0728 9.46919 25.6651 14.0034 25.6651Z" fill="#4CAF50"/>
<path d="M25.4398 11.7164H24.5V11.668H14V16.3346H20.5934C20.1314 17.6396 19.292 18.7648 18.2093 19.5844C18.2099 19.5838 18.2105 19.5838 18.2111 19.5832L21.8219 22.6387C21.5664 22.8709 25.6667 19.8346 25.6667 14.0013C25.6667 13.2191 25.5862 12.4555 25.4398 11.7164Z" fill="#1976D2"/>
</svg>
