<svg width="16" height="16" viewBox="0 0 16 16" fill="none" xmlns="http://www.w3.org/2000/svg">
<path d="M8.0054 5.74957H11.9654C12.1476 5.74957 12.3254 5.76701 12.4975 5.80076V4.34557C12.4975 3.56932 13.1264 2.93932 13.9021 2.93932H14.5512C14.6615 2.93932 14.7515 2.84932 14.7515 2.73907V2.08489C14.7515 1.93414 14.8735 1.81207 15.0237 1.81207C15.494 1.81207 15.8748 2.19345 15.8748 2.6637V3.78251C15.8748 4.55876 15.2459 5.18876 14.4702 5.18876H13.8216C13.7953 5.18876 13.7693 5.19394 13.745 5.204C13.7207 5.21407 13.6986 5.22882 13.68 5.24741C13.6615 5.26601 13.6467 5.28808 13.6366 5.31238C13.6266 5.33667 13.6214 5.36271 13.6214 5.38901V6.30082C13.9658 6.55856 14.2453 6.89311 14.4376 7.27785C14.63 7.6626 14.73 8.08692 14.7295 8.51707V12.5558C14.7295 12.8837 14.618 13.2019 14.4134 13.4581L12.5943 15.7351C12.5596 15.7786 12.5155 15.8138 12.4654 15.8379C12.4152 15.8621 12.3603 15.8746 12.3046 15.8746H11.62C11.5958 15.8746 11.572 15.8679 11.5514 15.8552C11.5308 15.8424 11.5141 15.8242 11.5032 15.8026C11.4924 15.7809 11.4877 15.7566 11.4899 15.7325C11.492 15.7084 11.5009 15.6853 11.5154 15.6659L12.7748 13.9846C12.9897 13.6981 13.0819 13.3381 13.0313 12.9837C12.9806 12.6292 12.7913 12.3094 12.5048 12.0946L11.0918 11.0331C10.9008 10.8896 10.6682 10.812 10.4292 10.8121H5.92696C5.54676 10.8125 5.17053 10.7348 4.82165 10.5837C4.79468 10.5722 4.76487 10.569 4.73608 10.5746C4.70729 10.5802 4.68086 10.5944 4.66021 10.6152L4.16521 11.1102C4.12986 11.1455 4.10198 11.1876 4.08323 11.2339C4.06449 11.2803 4.05526 11.3299 4.0561 11.3799C4.05694 11.4298 4.06783 11.4791 4.08812 11.5248C4.10841 11.5705 4.13769 11.6116 4.17421 11.6457L4.88408 12.3623C4.97216 12.4502 5.09152 12.4996 5.21596 12.4996H5.47302C5.62152 12.4996 5.7419 12.6205 5.7419 12.769V13.3557C5.7419 13.3911 5.73492 13.4261 5.72138 13.4587C5.70783 13.4914 5.68797 13.521 5.66295 13.546C5.63792 13.571 5.60821 13.5908 5.57553 13.6043C5.54284 13.6177 5.50782 13.6246 5.47246 13.6246H5.21596C5.00669 13.6252 4.79939 13.5842 4.60608 13.5041C4.41276 13.4239 4.23729 13.3062 4.08983 13.1577L3.38952 12.4512C3.10182 12.1672 2.93788 11.7811 2.93333 11.3768C2.93243 11.1796 2.9707 10.9842 3.04592 10.8019C3.12114 10.6196 3.23181 10.454 3.37152 10.3148L3.73208 9.95314C3.75756 9.9275 3.77273 9.89339 3.7747 9.8573C3.77667 9.8212 3.7653 9.78565 3.74277 9.75739C3.43077 9.36536 3.23023 8.89647 3.16227 8.40007L2.5379 3.87476C2.53443 3.84961 2.52527 3.82557 2.51112 3.80449C2.49698 3.7834 2.47821 3.76582 2.45624 3.75308C2.43428 3.74034 2.4097 3.73277 2.38438 3.73095C2.35905 3.72912 2.33364 3.7331 2.31008 3.74257L1.50683 4.06657L0.790771 2.77845L1.6784 1.81657H1.22446C1.20458 1.81648 1.18496 1.8121 1.16693 1.80374C1.1489 1.79538 1.13288 1.78323 1.11997 1.76813C1.10705 1.75302 1.09754 1.73531 1.09208 1.7162C1.08662 1.69709 1.08534 1.67703 1.08833 1.65738C1.1264 1.3883 1.2603 1.142 1.46543 0.963738C1.67056 0.785478 1.93313 0.687238 2.2049 0.687073H2.6099V0.276447C2.60997 0.249266 2.61734 0.222603 2.63124 0.199242C2.64513 0.17588 2.66504 0.156675 2.68889 0.143631C2.71273 0.130587 2.73965 0.124181 2.76681 0.125084C2.79398 0.125986 2.82041 0.134162 2.84333 0.14876L3.55996 0.685385H6.50015C6.63233 0.685385 6.73977 0.792822 6.73977 0.925572C6.73977 1.29851 6.54571 1.62532 6.25321 1.81151H7.75396C7.88896 1.81151 7.99865 1.92176 7.99865 2.05676C7.99903 2.34251 7.92852 2.62389 7.79344 2.87569C7.65836 3.1275 7.46293 3.34186 7.22465 3.49957H8.67702C8.80527 3.49957 8.90877 3.60364 8.90877 3.73188C8.90917 4.14199 8.79778 4.54445 8.58658 4.89599C8.37537 5.24753 8.07235 5.53485 7.71008 5.72707C7.80683 5.7417 7.90583 5.74957 8.00596 5.74957H8.0054ZM2.65602 2.68563C2.73061 2.68563 2.80215 2.656 2.8549 2.60326C2.90764 2.55051 2.93727 2.47898 2.93727 2.40438V2.09332C2.93897 2.05537 2.93296 2.01746 2.91961 1.98189C2.90625 1.94632 2.88583 1.91383 2.85957 1.88637C2.83332 1.85891 2.80177 1.83706 2.76683 1.82213C2.73189 1.8072 2.6943 1.7995 2.6563 1.7995C2.61831 1.7995 2.58071 1.8072 2.54577 1.82213C2.51084 1.83706 2.47929 1.85891 2.45303 1.88637C2.42677 1.91383 2.40635 1.94632 2.393 1.98189C2.37964 2.01746 2.37364 2.05537 2.37533 2.09332V2.40495C2.37533 2.47954 2.40497 2.55108 2.45771 2.60382C2.51045 2.65657 2.58199 2.6862 2.65658 2.6862L2.65602 2.68563Z" fill="#141414"/>
<path d="M0.589889 2.99609L0.284451 3.32797C0.219711 3.39799 0.172536 3.4824 0.146816 3.57423C0.121095 3.66606 0.117564 3.76269 0.136514 3.85616C0.215264 4.24259 0.597764 4.43441 0.963389 4.28647L1.24408 4.17341L0.589889 2.99609ZM2.53895 7.99953H2.17895C1.98241 7.9996 1.78782 8.0384 1.60627 8.1137C1.42473 8.18899 1.2598 8.29932 1.12091 8.43837C0.982014 8.57742 0.871874 8.74247 0.796782 8.9241C0.72169 9.10573 0.683116 9.30037 0.683264 9.49691V10.8244C0.683264 11.2502 0.849201 11.6507 1.15014 11.9517L1.37064 12.1722C1.39049 12.1921 1.41408 12.2078 1.44004 12.2186C1.46601 12.2294 1.49384 12.2349 1.52195 12.2349C1.55006 12.2349 1.5779 12.2294 1.60386 12.2186C1.62982 12.2078 1.65341 12.1921 1.67326 12.1722L2.16433 11.6794C2.20438 11.6392 2.22687 11.5848 2.22687 11.5281C2.22687 11.4714 2.20438 11.417 2.16433 11.3768L1.94383 11.1563C1.85608 11.0681 1.80674 10.9488 1.80658 10.8244V9.49691C1.80658 9.29103 1.97364 9.12453 2.17895 9.12453H2.76058C2.68734 8.91441 2.63515 8.69753 2.60476 8.47709L2.53895 7.99953ZM9.6737 11.3751V12.036C9.67366 12.1067 9.65968 12.1767 9.63255 12.2419C9.60543 12.3072 9.5657 12.3664 9.51564 12.4163L9.01951 12.9102C8.87022 13.059 8.75189 13.2359 8.67137 13.4308C8.59085 13.6256 8.54973 13.8345 8.55039 14.0453V14.5723C8.55039 14.6702 8.62914 14.7501 8.72758 14.7501H9.49651C9.54356 14.7499 9.58863 14.7312 9.62184 14.6978C9.65505 14.6645 9.6737 14.6194 9.6737 14.5723V14.0447C9.6737 13.9176 9.72433 13.7955 9.81433 13.7055L11.485 12.0327L10.7537 11.4837C10.6601 11.4132 10.5462 11.3751 10.4291 11.3751H9.6737Z" fill="#141414"/>
</svg>
