<svg width="40" height="40" viewBox="0 0 40 40" fill="none" xmlns="http://www.w3.org/2000/svg">
<circle cx="20" cy="20" r="19.5" stroke="#E4E4E5"/>
<g transform="translate(12, 12)">
<path d="M8.00564 5.74957H11.9656C12.1479 5.74957 12.3256 5.76701 12.4978 5.80076V4.34557C12.4978 3.56932 13.1266 2.93932 13.9023 2.93932H14.5515C14.6617 2.93932 14.7517 2.84932 14.7517 2.73907V2.08489C14.7517 1.93414 14.8738 1.81207 15.024 1.81207C15.4942 1.81207 15.875 2.19345 15.875 2.6637V3.78251C15.875 4.55876 15.2461 5.18876 14.4705 5.18876H13.8219C13.7956 5.18876 13.7696 5.19394 13.7453 5.204C13.721 5.21407 13.6989 5.22882 13.6803 5.24741C13.6617 5.26601 13.6469 5.28808 13.6369 5.31238C13.6268 5.33667 13.6216 5.36271 13.6216 5.38901V6.30082C13.966 6.55856 14.2455 6.89311 14.4379 7.27785C14.6303 7.6626 14.7302 8.08692 14.7298 8.51707V12.5558C14.7298 12.8837 14.6183 13.2019 14.4136 13.4581L12.5945 15.7351C12.5598 15.7786 12.5158 15.8138 12.4656 15.8379C12.4155 15.8621 12.3605 15.8746 12.3048 15.8746H11.6203C11.596 15.8746 11.5723 15.8679 11.5516 15.8552C11.531 15.8424 11.5143 15.8242 11.5035 15.8026C11.4926 15.7809 11.488 15.7566 11.4901 15.7325C11.4923 15.7084 11.5011 15.6853 11.5156 15.6659L12.7751 13.9846C12.9899 13.6981 13.0821 13.3381 13.0315 12.9837C12.9809 12.6292 12.7915 12.3094 12.5051 12.0946L11.0921 11.0331C10.901 10.8896 10.6685 10.812 10.4295 10.8121H5.9272C5.54701 10.8125 5.17078 10.7348 4.82189 10.5837C4.79493 10.5722 4.76511 10.569 4.73632 10.5746C4.70754 10.5802 4.6811 10.5944 4.66045 10.6152L4.16545 11.1102C4.1301 11.1455 4.10222 11.1876 4.08348 11.2339C4.06473 11.2803 4.05551 11.3299 4.05635 11.3799C4.05719 11.4298 4.06808 11.4791 4.08837 11.5248C4.10866 11.5705 4.13794 11.6116 4.17445 11.6457L4.88433 12.3623C4.9724 12.4502 5.09176 12.4996 5.2162 12.4996H5.47327C5.62177 12.4996 5.74214 12.6205 5.74214 12.769V13.3557C5.74214 13.3911 5.73517 13.4261 5.72162 13.4587C5.70807 13.4914 5.68822 13.521 5.66319 13.546C5.63816 13.571 5.60846 13.5908 5.57577 13.6043C5.54308 13.6177 5.50806 13.6246 5.4727 13.6246H5.2162C5.00694 13.6252 4.79963 13.5842 4.60632 13.5041C4.41301 13.4239 4.23753 13.3062 4.09008 13.1577L3.38977 12.4512C3.10207 12.1672 2.93812 11.7811 2.93358 11.3768C2.93267 11.1796 2.97094 10.9842 3.04616 10.8019C3.12138 10.6196 3.23206 10.454 3.37177 10.3148L3.73233 9.95314C3.7578 9.9275 3.77297 9.89339 3.77494 9.8573C3.77691 9.8212 3.76555 9.78565 3.74302 9.75739C3.43101 9.36536 3.23048 8.89647 3.16252 8.40007L2.53814 3.87476C2.53467 3.84961 2.52552 3.82557 2.51137 3.80449C2.49722 3.7834 2.47845 3.76582 2.45649 3.75308C2.43453 3.74034 2.40995 3.73277 2.38462 3.73095C2.3593 3.72912 2.33389 3.7331 2.31033 3.74257L1.50708 4.06657L0.791016 2.77845L1.67864 1.81657H1.2247C1.20483 1.81648 1.18521 1.8121 1.16718 1.80374C1.14915 1.79538 1.13313 1.78323 1.12021 1.76813C1.1073 1.75302 1.09778 1.73531 1.09233 1.7162C1.08687 1.69709 1.08559 1.67703 1.08858 1.65738C1.12665 1.3883 1.26055 1.142 1.46568 0.963738C1.67081 0.785478 1.93338 0.687238 2.20514 0.687073H2.61014V0.276447C2.61022 0.249266 2.61759 0.222603 2.63148 0.199242C2.64538 0.17588 2.66528 0.156675 2.68913 0.143631C2.71298 0.130587 2.73989 0.124181 2.76706 0.125084C2.79422 0.125986 2.82065 0.134162 2.84358 0.14876L3.5602 0.685385H6.50039C6.63258 0.685385 6.74002 0.792822 6.74002 0.925572C6.74002 1.29851 6.54595 1.62532 6.25345 1.81151H7.7542C7.8892 1.81151 7.99889 1.92176 7.99889 2.05676C7.99928 2.34251 7.92877 2.62389 7.79369 2.87569C7.65861 3.1275 7.46317 3.34186 7.22489 3.49957H8.67727C8.80552 3.49957 8.90902 3.60364 8.90902 3.73188C8.90941 4.14199 8.79802 4.54445 8.58682 4.89599C8.37562 5.24753 8.0726 5.53485 7.71033 5.72707C7.80708 5.7417 7.90608 5.74957 8.0062 5.74957H8.00564ZM2.65627 2.68563C2.73086 2.68563 2.80239 2.656 2.85514 2.60326C2.90788 2.55051 2.93752 2.47898 2.93752 2.40438V2.09332C2.93921 2.05537 2.93321 2.01746 2.91985 1.98189C2.9065 1.94632 2.88608 1.91383 2.85982 1.88637C2.83356 1.85891 2.80201 1.83706 2.76708 1.82213C2.73214 1.8072 2.69454 1.7995 2.65655 1.7995C2.61855 1.7995 2.58095 1.8072 2.54602 1.82213C2.51108 1.83706 2.47953 1.85891 2.45328 1.88637C2.42702 1.91383 2.4066 1.94632 2.39324 1.98189C2.37989 2.01746 2.37388 2.05537 2.37558 2.09332V2.40495C2.37558 2.47954 2.40521 2.55108 2.45795 2.60382C2.5107 2.65657 2.58224 2.6862 2.65683 2.6862L2.65627 2.68563Z" fill="#141414"/>
<path d="M0.590377 2.99609L0.284939 3.32797C0.220199 3.39799 0.173025 3.4824 0.147304 3.57423C0.121583 3.66606 0.118052 3.76269 0.137002 3.85616C0.215752 4.24259 0.598252 4.43441 0.963877 4.28647L1.24456 4.17341L0.590377 2.99609ZM2.53944 7.99953H2.17944C1.9829 7.9996 1.7883 8.0384 1.60676 8.1137C1.42522 8.18899 1.26029 8.29932 1.1214 8.43837C0.982502 8.57742 0.872363 8.74247 0.79727 8.9241C0.722178 9.10573 0.683604 9.30037 0.683752 9.49691V10.8244C0.683752 11.2502 0.849689 11.6507 1.15063 11.9517L1.37113 12.1722C1.39098 12.1921 1.41457 12.2078 1.44053 12.2186C1.4665 12.2294 1.49433 12.2349 1.52244 12.2349C1.55055 12.2349 1.57838 12.2294 1.60435 12.2186C1.63031 12.2078 1.6539 12.1921 1.67375 12.1722L2.16481 11.6794C2.20487 11.6392 2.22736 11.5848 2.22736 11.5281C2.22736 11.4714 2.20487 11.417 2.16481 11.3768L1.94431 11.1563C1.85656 11.0681 1.80723 10.9488 1.80706 10.8244V9.49691C1.80706 9.29103 1.97413 9.12453 2.17944 9.12453H2.76106C2.68783 8.91441 2.63564 8.69753 2.60525 8.47709L2.53944 7.99953ZM9.67419 11.3751V12.036C9.67415 12.1067 9.66016 12.1767 9.63304 12.2419C9.60592 12.3072 9.56619 12.3664 9.51613 12.4163L9.02 12.9102C8.8707 13.059 8.75238 13.2359 8.67186 13.4308C8.59134 13.6256 8.55022 13.8345 8.55088 14.0453V14.5723C8.55088 14.6702 8.62963 14.7501 8.72806 14.7501H9.497C9.54405 14.7499 9.58911 14.7312 9.62233 14.6978C9.65554 14.6645 9.67419 14.6194 9.67419 14.5723V14.0447C9.67419 13.9176 9.72481 13.7955 9.81481 13.7055L11.4854 12.0327L10.7542 11.4837C10.6606 11.4132 10.5467 11.3751 10.4296 11.3751H9.67419Z" fill="#141414"/>
</g>
</svg>
