<svg width="24" height="24" viewBox="0 0 24 24" fill="none" xmlns="http://www.w3.org/2000/svg">
<path d="M12.0082 8.99943H17.2882C17.5312 8.99943 17.7682 9.02268 17.9977 9.06768V7.12743C17.9977 6.09243 18.8362 5.25243 19.8704 5.25243H20.7359C20.8829 5.25243 21.0029 5.13243 21.0029 4.98543V4.11318C21.0029 3.91218 21.1657 3.74943 21.3659 3.74943C21.9929 3.74943 22.5007 4.25793 22.5007 4.88493V6.37668C22.5007 7.41168 21.6622 8.25168 20.6279 8.25168H19.7632C19.7281 8.25168 19.6934 8.25859 19.661 8.272C19.6286 8.28542 19.5992 8.30509 19.5744 8.32988C19.5496 8.35468 19.5299 8.38411 19.5165 8.4165C19.5031 8.4489 19.4962 8.48362 19.4962 8.51868V9.73443C19.9554 10.0781 20.328 10.5241 20.5845 11.0371C20.841 11.5501 20.9743 12.1159 20.9737 12.6894V18.0744C20.9737 18.5116 20.825 18.9358 20.5522 19.2774L18.1267 22.3134C18.0804 22.3715 18.0217 22.4184 17.9548 22.4506C17.8879 22.4828 17.8146 22.4995 17.7404 22.4994H16.8277C16.7954 22.4995 16.7637 22.4905 16.7362 22.4735C16.7087 22.4566 16.6864 22.4323 16.6719 22.4034C16.6575 22.3745 16.6513 22.3422 16.6542 22.31C16.657 22.2778 16.6688 22.2471 16.6882 22.2212L18.3674 19.9794C18.6539 19.5975 18.7768 19.1175 18.7093 18.6449C18.6418 18.1723 18.3893 17.7459 18.0074 17.4594L16.1234 16.0442C15.8687 15.8528 15.5586 15.7493 15.2399 15.7494H9.23692C8.72999 15.75 8.22835 15.6464 7.76317 15.4449C7.72722 15.4295 7.68747 15.4253 7.64908 15.4328C7.6107 15.4403 7.57545 15.4592 7.54792 15.4869L6.88792 16.1469C6.84079 16.194 6.80362 16.2501 6.77862 16.3119C6.75363 16.3737 6.74133 16.4399 6.74245 16.5065C6.74357 16.5731 6.75809 16.6388 6.78514 16.6997C6.8122 16.7606 6.85123 16.8154 6.89992 16.8609L7.84642 17.8164C7.96386 17.9336 8.123 17.9995 8.28892 17.9994H8.63167C8.82967 17.9994 8.99017 18.1607 8.99017 18.3587V19.1409C8.99017 19.1881 8.98087 19.2348 8.96281 19.2783C8.94475 19.3218 8.91827 19.3614 8.8849 19.3947C8.85154 19.428 8.81193 19.4544 8.76834 19.4724C8.72476 19.4903 8.67806 19.4995 8.63092 19.4994H8.28892C8.0099 19.5002 7.73349 19.4456 7.47574 19.3388C7.21799 19.2319 6.98403 19.0749 6.78742 18.8769L5.85367 17.9349C5.47007 17.5562 5.25148 17.0414 5.24542 16.5024C5.24422 16.2395 5.29524 15.9789 5.39553 15.7358C5.49583 15.4928 5.64339 15.272 5.82967 15.0864L6.31042 14.6042C6.34439 14.57 6.36461 14.5245 6.36724 14.4764C6.36986 14.4283 6.35472 14.3809 6.32467 14.3432C5.90867 13.8205 5.64129 13.1953 5.55067 12.5334L4.71817 6.49968C4.71355 6.46614 4.70134 6.4341 4.68247 6.40599C4.66361 6.37787 4.63859 6.35443 4.6093 6.33744C4.58002 6.32045 4.54725 6.31035 4.51348 6.30793C4.47971 6.3055 4.44583 6.3108 4.41442 6.32343L3.34342 6.75543L2.38867 5.03793L3.57217 3.75543H2.96692C2.94042 3.7553 2.91426 3.74946 2.89022 3.73832C2.86618 3.72717 2.84482 3.71098 2.8276 3.69084C2.81038 3.6707 2.7977 3.64709 2.79042 3.62161C2.78314 3.59613 2.78144 3.56938 2.78542 3.54318C2.83618 3.1844 3.01472 2.856 3.28822 2.61832C3.56173 2.38064 3.91182 2.24965 4.27417 2.24943H4.81417V1.70193C4.81427 1.66569 4.8241 1.63014 4.84263 1.59899C4.86115 1.56784 4.8877 1.54223 4.91949 1.52484C4.95129 1.50745 4.98717 1.49891 5.02339 1.50011C5.05961 1.50131 5.09485 1.51222 5.12542 1.53168L6.08092 2.24718H10.0012C10.1774 2.24718 10.3207 2.39043 10.3207 2.56743C10.3207 3.06468 10.0619 3.50043 9.67192 3.74868H11.6729C11.8529 3.74868 11.9992 3.89568 11.9992 4.07568C11.9997 4.45668 11.9057 4.83185 11.7256 5.16759C11.5455 5.50333 11.2849 5.78914 10.9672 5.99943H12.9037C13.0747 5.99943 13.2127 6.13818 13.2127 6.30918C13.2132 6.85599 13.0647 7.3926 12.7831 7.86132C12.5015 8.33004 12.0974 8.71314 11.6144 8.96943C11.7434 8.98893 11.8754 8.99943 12.0089 8.99943H12.0082ZM4.87567 4.91418C4.97513 4.91418 5.07051 4.87467 5.14084 4.80435C5.21116 4.73402 5.25067 4.63864 5.25067 4.53918V4.12443C5.25294 4.07382 5.24492 4.02328 5.22712 3.97586C5.20931 3.92843 5.18209 3.88511 5.14707 3.84849C5.11206 3.81188 5.07 3.78274 5.02342 3.76284C4.97684 3.74293 4.9267 3.73266 4.87605 3.73266C4.82539 3.73266 4.77526 3.74293 4.72868 3.76284C4.68209 3.78274 4.64003 3.81188 4.60502 3.84849C4.57001 3.88511 4.54278 3.92843 4.52497 3.97586C4.50717 4.02328 4.49916 4.07382 4.50142 4.12443V4.53993C4.50142 4.63939 4.54093 4.73477 4.61126 4.8051C4.68158 4.87542 4.77697 4.91493 4.87642 4.91493L4.87567 4.91418Z" fill="#141414"/>
<path d="M2.1205 5.32812L1.71325 5.77062C1.62693 5.86399 1.56403 5.97653 1.52974 6.09897C1.49544 6.22142 1.49074 6.35026 1.516 6.47488C1.621 6.99013 2.131 7.24587 2.6185 7.04862L2.99275 6.89787L2.1205 5.32812ZM4.71925 11.9994H4.23925C3.9772 11.9995 3.71774 12.0512 3.47568 12.1516C3.23363 12.252 3.01372 12.3991 2.82853 12.5845C2.64334 12.7699 2.49648 12.99 2.39636 13.2321C2.29624 13.4743 2.24481 13.7338 2.245 13.9959V15.7659C2.245 16.3336 2.46625 16.8676 2.8675 17.2689L3.1615 17.5629C3.18798 17.5894 3.21942 17.6105 3.25404 17.6248C3.28866 17.6392 3.32577 17.6466 3.36325 17.6466C3.40073 17.6466 3.43784 17.6392 3.47246 17.6248C3.50708 17.6105 3.53853 17.5894 3.565 17.5629L4.21975 16.9059C4.27315 16.8523 4.30314 16.7798 4.30314 16.7041C4.30314 16.6285 4.27315 16.5559 4.21975 16.5024L3.92575 16.2084C3.80875 16.0908 3.74297 15.9317 3.74275 15.7659V13.9959C3.74275 13.7214 3.9655 13.4994 4.23925 13.4994H5.01475C4.91711 13.2192 4.84751 12.93 4.807 12.6361L4.71925 11.9994ZM14.2323 16.5001V17.3814C14.2322 17.4756 14.2136 17.5689 14.1774 17.6559C14.1412 17.7429 14.0883 17.8219 14.0215 17.8884L13.36 18.5469C13.1609 18.7453 13.0032 18.9813 12.8958 19.241C12.7884 19.5008 12.7336 19.7793 12.7345 20.0604V20.7631C12.7345 20.8936 12.8395 21.0001 12.9708 21.0001H13.996C14.0587 20.9999 14.1188 20.9749 14.1631 20.9304C14.2074 20.886 14.2323 20.8259 14.2323 20.7631V20.0596C14.2323 19.8901 14.2998 19.7274 14.4198 19.6074L16.6473 17.3769L15.6723 16.6449C15.5475 16.551 15.3956 16.5002 15.2395 16.5001H14.2323Z" fill="#141414"/>
</svg>
