<svg width="24" height="24" viewBox="0 0 24 24" fill="none" xmlns="http://www.w3.org/2000/svg">
<path fill-rule="evenodd" clip-rule="evenodd" d="M8.4004 4.70078C8.05558 4.70078 7.72488 4.83776 7.48105 5.08159C7.23722 5.32542 7.10024 5.65612 7.10024 6.00095C7.10024 6.34577 7.23722 6.67647 7.48105 6.9203C7.72488 7.16413 8.05558 7.30111 8.4004 7.30111H11.0677C10.962 7.00795 10.8205 6.67132 10.6373 6.33829C10.1282 5.4127 9.41125 4.70078 8.4004 4.70078ZM8.4004 8.70111C8.04727 8.70111 7.70126 8.63194 7.38051 8.50109H4.5V11.5014H5.11023C5.23649 11.3777 5.4094 11.3014 5.60013 11.3014C5.79086 11.3014 5.96377 11.3777 6.09002 11.5014H11.3006V8.70111H8.4004ZM4 7.50109H6.15529C5.86076 7.06029 5.70024 6.53889 5.70024 6.00095C5.70024 5.28482 5.98472 4.59802 6.4911 4.09164C6.99748 3.58526 7.68427 3.30078 8.4004 3.30078C10.1898 3.30078 11.273 4.58902 11.864 5.6636C12.0836 6.06293 12.251 6.45885 12.3753 6.8001C12.8463 5.62184 13.8184 4.00078 15.6009 4.00078C16.1314 4.00078 16.6402 4.21151 17.0153 4.58662C17.3904 4.96172 17.6011 5.47047 17.6011 6.00095C17.6011 6.53142 17.3904 7.04017 17.0153 7.41528C16.9856 7.44491 16.9552 7.47353 16.9239 7.50109H20.0013C20.2775 7.50109 20.5013 7.72494 20.5013 8.00109V12.0014C20.5013 12.2776 20.2775 12.5014 20.0013 12.5014H19.1012V20.0021C19.1012 20.3887 18.7878 20.7021 18.4012 20.7021H5.60013C5.21353 20.7021 4.90013 20.3887 4.90013 20.0021V12.5014H4C3.72386 12.5014 3.5 12.2776 3.5 12.0014V8.00109C3.5 7.72494 3.72386 7.50109 4 7.50109ZM12.7006 11.5014V8.50109H19.5013V11.5014H18.8911C18.7648 11.3777 18.5919 11.3014 18.4012 11.3014C18.2105 11.3014 18.0375 11.3777 17.9113 11.5014H12.7006ZM11.3006 12.5014H6.30013V19.3021H11.3006V12.5014ZM12.7006 19.3021V12.5014H17.7012V19.3021H12.7006Z" fill="#A5A8AC"/>
</svg>
