<svg width="34" height="34" viewBox="0 0 34 34" fill="none" xmlns="http://www.w3.org/2000/svg">
<path d="M17.0013 16.292C15.443 16.292 14.168 15.7962 13.1763 14.8045C12.1846 13.8128 11.6888 12.5378 11.6888 10.9795C11.6888 9.42116 12.1846 8.14616 13.1763 7.15449C14.168 6.16283 15.443 5.66699 17.0013 5.66699C18.5596 5.66699 19.8346 6.16283 20.8263 7.15449C21.818 8.14616 22.3138 9.42116 22.3138 10.9795C22.3138 12.5378 21.818 13.8128 20.8263 14.8045C19.8346 15.7962 18.5596 16.292 17.0013 16.292ZM26.2096 27.6607H7.79297C7.20269 27.6607 6.70095 27.4541 6.28776 27.0409C5.87457 26.6278 5.66797 26.126 5.66797 25.5357V24.3316C5.66797 23.4344 5.89227 22.667 6.34089 22.0295C6.7895 21.392 7.36797 20.908 8.0763 20.5774C9.65825 19.8691 11.1753 19.3378 12.6273 18.9837C14.0794 18.6295 15.5374 18.4524 17.0013 18.4524C18.4652 18.4524 19.9173 18.6354 21.3576 19.0014C22.7978 19.3673 24.3089 19.8927 25.8909 20.5774C26.6228 20.908 27.2131 21.392 27.6617 22.0295C28.1103 22.667 28.3346 23.4344 28.3346 24.3316V25.5357C28.3346 26.126 28.128 26.6278 27.7148 27.0409C27.3017 27.4541 26.7999 27.6607 26.2096 27.6607ZM7.79297 25.5357H26.2096V24.3316C26.2096 23.9538 26.0975 23.5937 25.8732 23.2514C25.6489 22.909 25.3714 22.6552 25.0409 22.4899C23.5298 21.758 22.1485 21.2562 20.8971 20.9847C19.6457 20.7132 18.3471 20.5774 17.0013 20.5774C15.6555 20.5774 14.3451 20.7132 13.0701 20.9847C11.7951 21.2562 10.4138 21.758 8.9263 22.4899C8.59575 22.6552 8.32422 22.909 8.11172 23.2514C7.89922 23.5937 7.79297 23.9538 7.79297 24.3316V25.5357ZM17.0013 14.167C17.9221 14.167 18.6836 13.8659 19.2857 13.2639C19.8878 12.6618 20.1888 11.9003 20.1888 10.9795C20.1888 10.0587 19.8878 9.2972 19.2857 8.69512C18.6836 8.09303 17.9221 7.79199 17.0013 7.79199C16.0805 7.79199 15.319 8.09303 14.7169 8.69512C14.1148 9.2972 13.8138 10.0587 13.8138 10.9795C13.8138 11.9003 14.1148 12.6618 14.7169 13.2639C15.319 13.8659 16.0805 14.167 17.0013 14.167Z" fill="#7633FF"/>
</svg>
