<svg width="34" height="34" viewBox="0 0 26 26" fill="none" xmlns="http://www.w3.org/2000/svg">
<path fill-rule="evenodd" clip-rule="evenodd" d="M13 1.75C6.7868 1.75 1.75 6.7868 1.75 13C1.75 19.2132 6.7868 24.25 13 24.25C19.2132 24.25 24.25 19.2132 24.25 13C24.25 6.7868 19.2132 1.75 13 1.75ZM0.25 13C0.25 5.95837 5.95837 0.25 13 0.25C20.0416 0.25 25.75 5.95837 25.75 13C25.75 20.0416 20.0416 25.75 13 25.75C5.95837 25.75 0.25 20.0416 0.25 13ZM13.5303 7.66967L18.3278 12.4672C18.3365 12.4758 18.345 12.4846 18.3533 12.4936C18.4101 12.5556 18.4546 12.6249 18.4868 12.6982C18.5275 12.7905 18.55 12.8926 18.55 13C18.55 13.1074 18.5275 13.2095 18.4868 13.3018C18.4546 13.3751 18.4101 13.4444 18.3533 13.5064C18.345 13.5154 18.3365 13.5242 18.3278 13.5328L13.5303 18.3303C13.2374 18.6232 12.7626 18.6232 12.4697 18.3303C12.1768 18.0374 12.1768 17.5626 12.4697 17.2697L15.9893 13.75H8.20001C7.7858 13.75 7.45001 13.4142 7.45001 13C7.45001 12.5858 7.7858 12.25 8.20001 12.25H15.9893L12.4697 8.73033C12.1768 8.43744 12.1768 7.96256 12.4697 7.66967C12.7626 7.37678 13.2374 7.37678 13.5303 7.66967Z" fill="#7633FF"/>
</svg>
