<svg width="32" height="32" viewBox="0 0 26 26" fill="none" xmlns="http://www.w3.org/2000/svg">
<path fill-rule="evenodd" clip-rule="evenodd" d="M12.6648 0.32918C12.8759 0.223607 13.1244 0.223607 13.3356 0.32918L25.3356 6.32918C25.5897 6.45622 25.7502 6.71592 25.7502 7C25.7502 7.28408 25.5897 7.54378 25.3356 7.67082L13.3356 13.6708C13.1244 13.7764 12.8759 13.7764 12.6648 13.6708L0.664754 7.67082C0.410666 7.54378 0.250164 7.28408 0.250164 7C0.250164 6.71592 0.410666 6.45622 0.664754 6.32918L12.6648 0.32918ZM2.67722 7L13.0002 12.1615L23.3231 7L13.0002 1.83853L2.67722 7ZM0.329344 18.6646C0.514586 18.2941 0.965091 18.1439 1.33557 18.3292L13.0002 24.1615L24.6648 18.3292C25.0352 18.1439 25.4857 18.2941 25.671 18.6646C25.8562 19.0351 25.7061 19.4856 25.3356 19.6708L13.3356 25.6708C13.1244 25.7764 12.8759 25.7764 12.6648 25.6708L0.664754 19.6708C0.29427 19.4856 0.144102 19.0351 0.329344 18.6646ZM1.33557 12.3292C0.965091 12.1439 0.514586 12.2941 0.329344 12.6646C0.144102 13.0351 0.29427 13.4856 0.664754 13.6708L12.6648 19.6708C12.8759 19.7764 13.1244 19.7764 13.3356 19.6708L25.3356 13.6708C25.7061 13.4856 25.8562 13.0351 25.671 12.6646C25.4857 12.2941 25.0352 12.1439 24.6648 12.3292L13.0002 18.1615L1.33557 12.3292Z" fill="black"/>
</svg>
