<svg width="24" height="24" viewBox="0 0 24 24" fill="none" xmlns="http://www.w3.org/2000/svg">
<path d="M16.539 9.18469C16.0742 9.0153 15.5828 8.9303 15.088 8.93369C13.488 8.93369 12.358 9.73969 12.35 10.8967C12.34 11.7467 13.153 12.2257 13.768 12.5097C14.399 12.8017 14.61 12.9857 14.608 13.2467C14.604 13.6437 14.104 13.8237 13.639 13.8237C13 13.8237 12.651 13.7347 12.114 13.5117L11.915 13.4187L11.688 14.7507C12.077 14.9127 12.778 15.0517 13.502 15.0637C15.203 15.0637 16.315 14.2627 16.328 13.0317C16.342 12.3527 15.902 11.8397 14.976 11.4157C14.413 11.1407 14.064 10.9567 14.064 10.6777C14.064 10.4307 14.363 10.1667 14.988 10.1667C15.404 10.1566 15.8174 10.2347 16.201 10.3957L16.351 10.4627L16.578 9.17569L16.539 9.18469ZM20.691 9.04169H19.441C19.052 9.04169 18.759 9.14869 18.589 9.53469L16.185 14.9807H17.886L18.226 14.0877L20.302 14.0897C20.351 14.2987 20.501 14.9807 20.501 14.9807H22.001L20.691 9.04169ZM10.049 8.99169H11.67L10.656 14.9337H9.03705L10.049 8.98969V8.99169ZM5.93405 12.2667L6.10205 13.0917L7.68605 9.04169H9.40305L6.85205 14.9727H5.13905L3.73905 9.95069C3.71637 9.86788 3.66312 9.79676 3.59005 9.75169C3.08545 9.49103 2.55079 9.29322 1.99805 9.16269L2.02005 9.03769H4.62905C4.98305 9.05169 5.26805 9.16269 5.36305 9.54069L5.93305 12.2697V12.2667H5.93405ZM18.691 12.8727L19.337 11.2107C19.329 11.2287 19.47 10.8677 19.552 10.6447L19.663 11.1577L20.038 12.8717H18.69V12.8727H18.691Z" fill="#141414"/>
</svg>
